<?xml version="1.0" standalone="no"?>
<!DOCTYPE svg PUBLIC "-//W3C//DTD SVG 20010904//EN"
 "http://www.w3.org/TR/2001/REC-SVG-20010904/DTD/svg10.dtd">
<svg version="1.0" xmlns="http://www.w3.org/2000/svg"
 width="128.000000pt" height="128.000000pt" viewBox="0 0 128.000000 128.000000"
 preserveAspectRatio="xMidYMid meet">

<g transform="translate(0.000000,128.000000) scale(0.100000,-0.100000)"
fill="#000000" stroke="none">
<path d="M280 1250 c-18 -18 -20 -33 -20 -129 0 -123 8 -141 64 -141 51 0 56
12 56 141 0 110 -1 119 -22 133 -30 21 -54 20 -78 -4z"/>
<path d="M927 1252 c-14 -15 -17 -41 -17 -133 0 -127 5 -139 56 -139 56 0 64
18 64 141 0 96 -2 111 -20 129 -25 25 -62 26 -83 2z"/>
<path d="M68 1163 c-15 -2 -37 -16 -48 -30 -19 -25 -20 -39 -20 -545 l0 -520
29 -29 29 -29 582 0 582 0 29 29 29 29 0 521 0 520 -23 26 c-20 24 -32 27
-104 32 l-81 6 -3 -98 c-4 -87 -6 -99 -28 -116 -36 -30 -111 -26 -144 7 -24
23 -27 35 -29 112 l-3 87 -220 0 -220 0 -3 -83 c-3 -97 -18 -127 -67 -141 -44
-12 -79 -4 -107 26 -20 21 -23 37 -26 114 l-4 89 -61 -1 c-34 -1 -74 -4 -89
-6z m1132 -698 l0 -375 -560 0 -560 0 0 375 0 375 560 0 560 0 0 -375z"/>
<path d="M677 733 c-4 -3 -7 -37 -7 -75 l0 -68 85 0 85 0 0 75 0 75 -78 0
c-43 0 -82 -3 -85 -7z"/>
<path d="M914 726 c-3 -7 -4 -40 -2 -72 l3 -59 83 -3 82 -3 0 76 0 75 -80 0
c-59 0 -82 -4 -86 -14z"/>
<path d="M192 458 l3 -73 83 -3 82 -3 0 76 0 75 -85 0 -86 0 3 -72z"/>
<path d="M432 458 l3 -73 83 -3 82 -3 0 76 0 75 -85 0 -86 0 3 -72z"/>
<path d="M672 458 l3 -73 83 -3 82 -3 0 76 0 75 -85 0 -86 0 3 -72z"/>
<path d="M914 516 c-3 -7 -4 -40 -2 -72 l3 -59 83 -3 82 -3 0 76 0 75 -80 0
c-59 0 -82 -4 -86 -14z"/>
<path d="M192 248 l3 -73 80 0 80 0 3 73 3 72 -86 0 -86 0 3 -72z"/>
<path d="M432 248 l3 -73 80 0 80 0 3 73 3 72 -86 0 -86 0 3 -72z"/>
<path d="M672 248 l3 -73 80 0 80 0 3 73 3 72 -86 0 -86 0 3 -72z"/>
<path d="M912 248 l3 -73 80 0 80 0 3 73 3 72 -86 0 -86 0 3 -72z"/>
</g>
</svg>
