<?xml version="1.0" standalone="no"?>
<!DOCTYPE svg PUBLIC "-//W3C//DTD SVG 20010904//EN"
 "http://www.w3.org/TR/2001/REC-SVG-20010904/DTD/svg10.dtd">
<svg version="1.0" xmlns="http://www.w3.org/2000/svg"
 width="128.000000pt" height="128.000000pt" viewBox="0 0 128.000000 128.000000"
 preserveAspectRatio="xMidYMid meet">

<g transform="translate(0.000000,128.000000) scale(0.100000,-0.100000)"
fill="#000000" stroke="none">
<path d="M298 1126 c-89 -33 -136 -91 -145 -180 -8 -73 28 -150 88 -192 59
-41 155 -46 219 -12 147 79 146 293 -1 369 -52 26 -116 32 -161 15z"/>
<path d="M870 1131 c-112 -36 -167 -116 -158 -227 6 -69 45 -128 108 -162 37
-19 56 -23 111 -20 87 5 138 38 175 115 35 70 30 146 -13 207 -48 69 -154 110
-223 87z"/>
<path d="M173 680 c-68 -27 -127 -87 -153 -156 -16 -45 -20 -78 -20 -187 l0
-133 88 -22 c135 -33 253 -45 360 -37 68 5 91 10 79 17 -15 8 -17 29 -17 157
0 165 11 220 59 292 l30 44 -37 20 c-31 17 -60 20 -187 22 -131 3 -157 0 -202
-17z"/>
<path d="M760 691 c-80 -26 -141 -80 -176 -156 -21 -45 -24 -64 -24 -191 l0
-140 91 -23 c201 -50 405 -49 556 1 l68 23 3 131 c3 153 -14 216 -74 278 -68
71 -100 80 -269 83 -82 1 -161 -1 -175 -6z"/>
</g>
</svg>
