<?xml version="1.0" standalone="no"?>
<!DOCTYPE svg PUBLIC "-//W3C//DTD SVG 20010904//EN"
 "http://www.w3.org/TR/2001/REC-SVG-20010904/DTD/svg10.dtd">
<svg version="1.0" xmlns="http://www.w3.org/2000/svg"
 width="128.000000pt" height="128.000000pt" viewBox="0 0 128.000000 128.000000"
 preserveAspectRatio="xMidYMid meet">

<g transform="translate(0.000000,128.000000) scale(0.100000,-0.100000)"
fill="#000000" stroke="none">
<path d="M261 1093 c-11 -10 -22 -29 -23 -43 l-3 -25 448 -3 447 -2 0 -350 0
-350 24 0 c15 0 33 11 46 27 20 26 21 34 18 376 l-3 349 -24 19 c-22 18 -45
19 -466 19 -407 0 -444 -1 -464 -17z"/>
<path d="M81 934 c-20 -26 -21 -38 -21 -371 l0 -344 25 -24 24 -25 456 0 456
0 24 25 25 24 0 344 c0 333 -1 345 -21 371 l-20 26 -464 0 -464 0 -20 -26z
m474 -354 l100 -100 57 57 58 58 105 -105 c101 -100 105 -106 105 -147 l0 -43
-415 0 -415 0 0 42 c0 42 4 47 147 190 81 82 150 148 153 148 3 0 50 -45 105
-100z"/>
</g>
</svg>
